# xmcd CD database file
# Generated: Tue Oct 8 16:03:14 2002 by KSCD
# 
# Track frame offsets:
#       150
#       25857
#       31138
#       41745
#       52749
#       66488
#       75672
#       92540
#       100208
#       107819
#       120339
#       135568
#       140149
#       149332
#       169174
#       182666
#       192897
#       209874
#       220390
#       234721
#       246442
#       273485
#       285028
#       293463
#       302938
#       315127
#
# Disc length: 4449 seconds
#
# Revision: 2
# Processed by: cddbd v1.4PL0 Copyright (c) Steve Scherf et al.
# Submitted via: Kscd 1.3.3
#
DISCID=7c115f1a
DTITLE=Dumitru Farcas - Tresors Folkloriques Roumains
DYEAR=1900
DGENRE=
TTITLE0=Suita din Tara Motilor
TTITLE1=Maruntel din Grosi
TTITLE2=Tarina mare
TTITLE3=Barbatesc din Apuseni
TTITLE4=Cantec batranesc din Grosi
TTITLE5=Tarina din Ponorel
TTITLE6=Du-te, dor, in munti de piatra
TTITLE7=Invartita din Glod
TTITLE8=Marie, draga Marie
TTITLE9=Joc din Transilvania
TTITLE10=Mara, pe marginea ta
TTITLE11=Jurelul fetelor
TTITLE12=Romanesc de pe Valea Almasului
TTITLE13=Colo-n muntii Tebei
TTITLE14=Barbatesc din Maramures
TTITLE15=Ciobanelul
TTITLE16=Aseara-n gradina
TTITLE17=De sarit din Grosi
TTITLE18=Mana, Gheorghe, boii bine
TTITLE19=Mireasa, cununa ta
TTITLE20=Sambra oilor din Maramures
TTITLE21=Fecioreasca de pe Mures
TTITLE22=Roata feciorilor
TTITLE23=Crihalma
TTITLE24=De strigat
TTITLE25=Horea lui Pintea Viteazul
EXTD=
EXTT0=
EXTT1=
EXTT2=
EXTT3=
EXTT4=
EXTT5=
EXTT6=
EXTT7=
EXTT8=
EXTT9=
EXTT10=
EXTT11=
EXTT12=
EXTT13=
EXTT14=
EXTT15=
EXTT16=
EXTT17=
EXTT18=
EXTT19=
EXTT20=
EXTT21=
EXTT22=
EXTT23=
EXTT24=
EXTT25=
PLAYORDER=
